Coordinates
version=1
nRows=11
nColumns=63
inDegrees=yes

Units are S.I. units (second, meters, Newtons, ...)
If the header above contains a line with 'inDegrees', this indicates whether rotational values are in degrees (yes) or radians (no).

endheader
time	pelvis_tilt	pelvis_list	pelvis_rotation	pelvis_tx	pelvis_ty	pelvis_tz	hip_flexion_r	hip_adduction_r	hip_rotation_r	knee_angle_r	knee_angle_r_beta	ankle_angle_r	subtalar_angle_r	mtp_angle_r	hip_flexion_l	hip_adduction_l	hip_rotation_l	knee_angle_l	knee_angle_l_beta	ankle_angle_l	subtalar_angle_l	mtp_angle_l	L5_S1_Flex_Ext	L5_S1_Lat_Bending	L5_S1_axial_rotation	L4_L5_Flex_Ext	L4_L5_Lat_Bending	L4_L5_axial_rotation	L3_L4_Flex_Ext	L3_L4_Lat_Bending	L3_L4_axial_rotation	L2_L3_Flex_Ext	L2_L3_Lat_Bending	L2_L3_axial_rotation	L1_L2_Flex_Ext	L1_L2_Lat_Bending	L1_L2_axial_rotation	L1_T12_Flex_Ext	L1_T12_Lat_Bending	L1_T12_axial_rotation	Abs_r3	Abs_r2	Abs_r1	Abs_t1	Abs_t2	neck_flexion	neck_bending	neck_rotation	arm_flex_r	arm_add_r	arm_rot_r	elbow_flex_r	pro_sup_r	wrist_flex_r	wrist_dev_r	arm_flex_l	arm_add_l	arm_rot_l	elbow_flex_l	pro_sup_l	wrist_flex_l	wrist_dev_l
0.000000	-1.546726	-4.131333	86.189959	0.208167	0.718813	0.917292	6.187672	-2.320424	1.768589	6.126657	0.106930	15.104785	7.489926	0.000000	4.578161	0.095016	-4.080429	2.653244	0.046308	21.189926	-3.168450	0.000000	0.230382	-0.352420	2.920189	0.427842	-0.468718	3.102701	0.378494	-0.856873	3.102701	0.263303	-0.856873	2.555165	0.213932	-0.718654	2.372654	0.131640	-0.545898	2.190142	1.645593	-3.986640	16.241215	0.000000	0.000000	26.656235	-2.321449	-25.854335	9.627177	-8.646983	53.071579	38.985390	61.062415	11.666850	-3.862407	22.668494	-10.116033	77.748591	41.793590	80.472763	8.037455	-11.701576
0.016949	-1.609770	-4.257696	86.562773	0.206971	0.718951	0.916940	6.300312	-2.510426	0.341253	6.307518	0.110087	15.362829	8.893175	0.000000	4.762982	0.249140	-3.267748	2.864975	0.050003	20.672130	-3.745822	0.000000	0.249713	-0.357390	2.861407	0.463741	-0.475329	3.040245	0.410253	-0.868959	3.040245	0.285397	-0.868959	2.503731	0.231883	-0.728790	2.324893	0.142686	-0.553598	2.146055	1.783673	-4.042871	15.914286	0.000000	0.000000	26.693653	-2.314084	-25.855605	9.536918	-8.732177	54.105079	39.284221	56.597412	11.525125	-1.796547	22.617096	-10.348463	80.390559	42.583781	74.199361	5.099679	-11.389702
0.033898	-1.676517	-4.346054	86.838793	0.206067	0.719087	0.916606	6.370709	-2.680750	-0.767368	6.449883	0.112572	15.576963	10.037290	0.000000	4.890511	0.389030	-2.578808	3.030476	0.052892	20.220540	-4.287889	0.000000	0.265762	-0.363876	2.820133	0.493546	-0.483955	2.996391	0.436620	-0.884728	2.996391	0.303739	-0.884728	2.467616	0.246787	-0.742016	2.291358	0.151856	-0.563644	2.115100	1.898311	-4.116237	15.684734	0.000000	0.000000	26.721033	-2.297624	-25.894237	9.457309	-8.794772	54.936071	39.523846	53.174650	11.471855	-0.053546	22.621954	-10.543745	82.740573	43.267536	69.351572	2.584806	-11.127029
0.050847	-1.745853	-4.401223	87.028911	0.205424	0.719219	0.916294	6.404776	-2.832460	-1.588731	6.558134	0.114461	15.751319	10.944889	0.000000	4.967839	0.515226	-2.002098	3.154508	0.055057	19.830385	-4.794907	0.000000	0.278787	-0.371635	2.794214	0.517735	-0.494275	2.968853	0.458019	-0.903594	2.968853	0.318625	-0.903594	2.444938	0.258881	-0.757839	2.270299	0.159299	-0.575663	2.095661	1.991345	-4.204013	15.540582	0.000000	0.000000	26.738496	-2.273280	-25.963676	9.387779	-8.837619	55.578588	39.710914	50.711403	11.494433	1.385411	22.674047	-10.705285	84.806091	43.851073	65.788921	0.467387	-10.910811
0.067797	-1.816662	-4.428019	87.144025	0.205013	0.719344	0.916007	6.408426	-2.966621	-2.154293	6.636650	0.115831	15.890026	11.638588	0.000000	5.002060	0.628268	-1.526107	3.241834	0.056581	19.496891	-5.267132	0.000000	0.289044	-0.380428	2.781497	0.536783	-0.505969	2.955340	0.474870	-0.924972	2.955340	0.330348	-0.924972	2.433810	0.268406	-0.775769	2.259966	0.165160	-0.589283	2.086123	2.064612	-4.303477	15.469850	0.000000	0.000000	26.746163	-2.242266	-26.057368	9.327759	-8.863567	56.046661	39.852072	49.124943	11.580252	2.539137	22.764352	-10.836488	86.594572	44.340608	63.370936	-1.278030	-10.738301
0.084746	-1.887829	-4.431258	87.195030	0.204801	0.719461	0.915748	6.387570	-3.084296	-2.495514	6.689812	0.116759	15.997217	12.141003	0.000000	5.000265	0.728696	-1.139326	3.297218	0.057547	19.215288	-5.704822	0.000000	0.296791	-0.390013	2.779827	0.551171	-0.518717	2.953566	0.487598	-0.948277	2.953566	0.339203	-0.948277	2.432348	0.275600	-0.795314	2.258609	0.169586	-0.604130	2.084870	2.119949	-4.411904	15.460561	0.000000	0.000000	26.744156	-2.205794	-26.168756	9.276677	-8.875464	56.354323	39.953969	48.332545	11.716707	3.426449	22.883849	-10.940761	88.113473	44.742359	61.957143	-2.676897	-10.606753
0.101695	-1.958240	-4.415755	87.192819	0.204758	0.719566	0.915520	6.348121	-3.186549	-2.643849	6.722000	0.117321	16.077023	12.474753	0.000000	4.969548	0.817051	-0.830242	3.325421	0.058040	18.980804	-6.108233	0.000000	0.302285	-0.400150	2.787050	0.561374	-0.532199	2.961241	0.496625	-0.972924	2.961241	0.345482	-0.972924	2.438669	0.280702	-0.815985	2.264478	0.172726	-0.619832	2.090288	2.159194	-4.526572	15.500736	0.000000	0.000000	26.732596	-2.165077	-26.291287	9.233964	-8.876159	56.515605	40.023254	48.251479	11.891192	4.066160	23.023516	-11.021511	89.370252	45.062543	61.407067	-3.754664	-10.513420
0.118644	-2.026779	-4.386327	87.148290	0.204855	0.719658	0.915324	6.295992	-3.274444	-2.630757	6.737595	0.117593	16.133576	12.662453	0.000000	4.917000	0.893873	-0.587345	3.331206	0.058141	18.788667	-6.477622	0.000000	0.305784	-0.410597	2.801014	0.567871	-0.546094	2.976077	0.502372	-0.998326	2.976077	0.349480	-0.998326	2.450887	0.283951	-0.837290	2.275824	0.174725	-0.636015	2.100760	2.184183	-4.644756	15.578397	0.000000	0.000000	26.711605	-2.121328	-26.418405	9.199049	-8.868501	56.544539	40.066574	48.799021	12.091101	4.477085	23.174332	-11.082143	90.372369	45.307378	61.580236	-4.536782	-10.455554
0.135593	-2.092332	-4.347789	87.072337	0.205059	0.719735	0.915165	6.237095	-3.349046	-2.487697	6.740978	0.117652	16.171006	12.726721	0.000000	4.849715	0.959702	-0.399126	3.319336	0.057933	18.634104	-6.813245	0.000000	0.307544	-0.421115	2.819563	0.571140	-0.560083	2.995786	0.505264	-1.023898	2.995786	0.351492	-1.023898	2.467118	0.285585	-0.858737	2.290895	0.175731	-0.652307	2.114673	2.196755	-4.763734	15.681565	0.000000	0.000000	26.681303	-2.075759	-26.543555	9.171362	-8.855340	56.455158	40.090578	49.892442	12.303827	4.678039	23.327276	-11.126064	91.127280	45.483082	62.336176	-5.048704	-10.430409
0.152542	-2.153783	-4.304957	86.975855	0.205340	0.719793	0.915046	6.177342	-3.411418	-2.246124	6.736529	0.117575	16.193445	12.690172	0.000000	4.774784	1.015078	-0.254072	3.294574	0.057501	18.512345	-7.115361	0.000000	0.307823	-0.431462	2.840546	0.571657	-0.573844	3.018080	0.505722	-1.049056	3.018080	0.351810	-1.049056	2.485477	0.285844	-0.879837	2.307943	0.175890	-0.668334	2.130409	2.198746	-4.880782	15.798263	0.000000	0.000000	26.641811	-2.029583	-26.660183	9.150333	-8.839524	56.261494	40.101915	51.449015	12.516765	4.687837	23.473326	-11.156680	91.642444	45.595871	63.534414	-5.315879	-10.435238
0.169492	-2.210017	-4.262647	86.869739	0.205667	0.719832	0.914968	6.122647	-3.462625	-1.937498	6.728628	0.117437	16.205024	12.575425	0.000000	4.699302	1.060541	-0.140673	3.261682	0.056927	18.418617	-7.384224	0.000000	0.306877	-0.441397	2.861807	0.569902	-0.587059	3.040670	0.504168	-1.073214	3.040670	0.350730	-1.073214	2.504081	0.284966	-0.900098	2.325218	0.175350	-0.683725	2.146355	2.191993	-4.993176	15.916510	0.000000	0.000000	26.593252	-1.984013	-26.761733	9.135391	-8.823902	55.977577	40.107233	53.386014	12.717308	4.525293	23.603460	-11.177397	91.925320	45.651962	65.034475	-5.363759	-10.467295
